<?xml version="1.0" encoding="UTF-8" standalone="no"?>
<!DOCTYPE svg PUBLIC "-//W3C//DTD SVG 1.1//EN" "http://www.w3.org/Graphics/SVG/1.1/DTD/svg11.dtd">
<!-- Created with Vectornator (http://vectornator.io/) -->
<svg height="100%" stroke-miterlimit="10" style="fill-rule:nonzero;clip-rule:evenodd;stroke-linecap:round;stroke-linejoin:round;" version="1.1" viewBox="0 0 576 576" width="100%" xml:space="preserve" xmlns="http://www.w3.org/2000/svg" xmlns:vectornator="http://vectornator.io" xmlns:xlink="http://www.w3.org/1999/xlink">
<defs/>
<clipPath id="ArtboardFrame">
<rect height="576" width="576" x="0" y="0"/>
</clipPath>
<g clip-path="url(#ArtboardFrame)" id="Untitled" vectornator:layerName="Untitled">
<path d="M114.421 0.924393C102.695 3.79896 87.995 16.4151 82.7097 28.0731C81.2232 31.4268 80.0671 38.4535 80.0671 45.0011C80.0671 64.0052 88.4905 77.2602 105.833 85.5645C118.551 91.7927 131.929 92.2718 145.803 87.0017L155.217 83.6481L166.449 91.1539C177.515 98.3403 194.692 114.31 194.692 117.344C194.692 118.143 191.389 120.059 187.59 121.497C175.202 125.968 144.647 143.695 130.112 154.714C115.412 165.893 94.2713 186.334 88.986 194.798C86.1782 199.27 86.013 200.068 88.3253 202.464C90.6377 205.019 90.4725 205.338 87.004 206.296C78.4154 208.852 63.055 219.392 51.4935 230.73L39.2712 242.867L24.5715 243.825C13.8357 244.624 8.88077 245.582 6.56846 247.658C1.44833 252.13-0.863985 269.058 0.292173 293.651C1.94383 331.18 12.0189 359.447 33.3253 385.158C43.2352 397.136 44.061 398.892 47.5295 413.425C51.8238 431.79 66.1932 460.536 79.4064 477.783C90.4725 492.156 116.403 517.229 130.938 527.609C164.632 551.564 208.566 568.971 250.022 574.401C268.686 576.796 308.161 576.477 327.65 573.602C406.764 561.944 472.83 519.784 509.827 457.182C519.077 441.532 527.996 419.653 529.482 408.474C530.308 402.725 532.951 397.934 542.2 385.957C556.9 366.953 564.828 352.42 570.608 334.055C574.242 321.918 575.068 315.69 575.728 293.492C576.719 265.225 575.068 252.609 569.617 247.818C567.47 245.901 562.185 244.943 551.119 244.145L535.758 243.027L522.876 229.932C515.278 222.266 506.524 215.239 501.239 212.525C493.806 208.852 491.824 206.616 487.2 198.152C475.803 176.912 433.686 143.695 395.203 125.489L377.86 117.344L381.824 112.234C387.11 105.527 406.599 89.8763 413.536 86.6823C418.821 84.1272 419.812 84.2869 429.557 87.4808C463.581 98.6597 494.467 78.378 494.137 45.0011C494.137 31.1074 489.677 21.5255 479.437 12.263C469.527 3.47957 462.095 0.604997 449.047 0.604997C424.272 0.445299 405.608 17.3733 403.296 41.9668L402.305 52.3472L392.395 58.7352C376.704 68.9558 365.308 79.0168 353.085 93.8688L341.689 107.603L328.806 105.207C305.353 100.895 256.959 102.013 233.341 107.443C230.698 108.082 228.551 106.166 222.77 98.1806C212.53 84.1272 194.031 66.5604 182.304 60.0127L172.395 54.4233L171.238 44.8414C170.578 39.7311 168.761 32.2252 167.274 28.3925C163.806 19.6091 153.235 8.27051 144.482 3.95866C137.214 0.445299 122.515-1.15168 114.421 0.924393ZM139.196 15.2972C144.316 20.727 139.196 28.0731 131.764 25.8373C127.304 24.4 126.148 18.9703 129.617 15.2972C131.103 13.7003 133.25 12.263 134.406 12.263C135.563 12.263 137.71 13.7003 139.196 15.2972ZM468.701 18.0121C473.656 21.5255 470.848 23.4418 460.608 23.4418C450.038 23.4418 445.743 22.0046 445.743 18.4912C445.743 15.936 447.065 15.4569 455.323 15.4569C461.434 15.4569 466.224 16.4151 468.701 18.0121ZM313.611 137.626C356.719 144.014 398.671 161.9 428.566 186.973L434.842 192.243L419.977 194C389.422 197.832 364.152 209.331 344.001 228.654C328.641 243.346 320.218 254.845 313.776 270.335L309.151 281.355L288.671 281.674L268.19 282.153L259.272 264.267C251.178 247.978 249.031 244.943 234.497 230.89C220.293 217.156 216.659 214.601 201.298 207.414C181.479 198.311 167.274 194.479 150.428 193.84C139.196 193.52 138.866 193.361 141.509 190.486C146.133 185.536 169.422 169.246 180.818 163.018C222.935 140.341 270.338 131.238 313.611 137.626ZM165.788 229.453C184.782 235.202 184.782 235.202 165.788 252.13C156.704 260.115 128.295 286.784 102.86 311.378C77.2593 335.971 55.6226 355.614 54.6316 354.975C52.3193 353.698 43.2352 332.298 41.9139 325.112C40.7577 318.884 39.9319 319.842 98.7308 261.073C104.677 255.164 109.136 249.894 108.641 249.575C108.31 249.095 100.548 250.533 91.6286 252.769C82.7097 255.004 74.9469 256.442 74.6166 255.962C72.965 254.366 90.3073 240.472 100.713 235.042C122.184 224.183 142.169 222.426 165.788 229.453ZM459.452 231.209C465.563 232.966 470.518 235.042 470.518 236C470.518 237.437 428.236 280.556 371.914 336.45L353.416 354.816L350.773 348.747C349.287 345.393 347.305 336.929 346.314 329.903C341.359 295.568 356.389 261.392 385.128 241.749C407.095 226.578 431.044 223.224 459.452 231.209ZM505.533 263.309C515.773 276.244 528.326 304.032 528.326 313.454C528.326 316.009 522.215 321.758 505.698 335.173C478.776 356.732 445.413 381.805 426.419 394.581C413.536 403.204 412.38 403.683 407.425 402.086C399.001 399.372 375.548 384.999 375.052 382.284C374.557 380.048 497.44 258.198 500.248 258.198C500.909 258.198 503.386 260.594 505.533 263.309ZM226.734 288.701C228.386 293.492 230.037 301.956 230.533 307.705L231.193 318.085L185.773 362.641L140.352 407.197L132.259 406.239C121.193 404.961 101.373 398.413 101.373 395.858C101.373 393.303 219.797 278.799 221.944 279.438C222.77 279.758 224.917 283.91 226.734 288.701ZM306.013 328.785C309.977 369.348 336.899 405.919 377.365 424.923C407.92 439.456 444.422 441.053 482.575 429.714C485.383 428.916 485.218 429.395 481.915 435.783C474.482 449.996 461.269 467.084 447.395 480.179C389.257 536.073 296.269 556.515 215.338 530.963C179.662 519.784 149.271 501.738 125.488 477.783C108.971 461.015 103.521 453.829 95.5926 438.817C91.2983 430.353 90.8028 428.916 93.4455 429.874C95.0971 430.513 102.695 432.589 110.458 434.186C131.434 438.817 165.623 437.699 183.956 431.631C201.629 425.881 217.32 416.619 231.359 403.843C255.142 382.124 267.365 358.169 271.494 324.792L272.485 317.287L288.671 317.287L304.857 317.287L306.013 328.785Z" fill="#ffffff" fill-rule="nonzero" opacity="1" stroke="none" vectornator:layerName="path"/>
</g>
</svg>
